<svg xmlns="http://www.w3.org/2000/svg" width="316.85" height="35" viewBox="0 0 316.85 35"><rect class="svg__rect" x="0" y="0" width="117.03" height="35" fill="#6DBD33"/><rect class="svg__rect" x="115.03" y="0" width="201.82" height="35" fill="#389AD5"/><path class="svg__text" d="M17.33 22L14.22 22L14.22 13.47L17.14 13.47Q18.59 13.47 19.34 14.05Q20.10 14.63 20.10 15.78L20.10 15.78Q20.10 16.36 19.78 16.83Q19.47 17.30 18.86 17.56L18.86 17.56Q19.55 17.75 19.93 18.26Q20.31 18.78 20.31 19.51L20.31 19.51Q20.31 20.71 19.53 21.36Q18.76 22 17.33 22L17.33 22ZM15.70 18.15L15.70 20.82L17.35 20.82Q18.04 20.82 18.44 20.47Q18.83 20.13 18.83 19.51L18.83 19.51Q18.83 18.18 17.47 18.15L17.47 18.15L15.70 18.15ZM15.70 14.66L15.70 17.06L17.15 17.06Q17.84 17.06 18.23 16.75Q18.62 16.43 18.62 15.86L18.62 15.86Q18.62 15.23 18.26 14.95Q17.90 14.66 17.14 14.66L17.14 14.66L15.70 14.66ZM24.64 19.16L24.64 19.16L24.64 13.47L26.12 13.47L26.12 19.18Q26.12 20.03 26.55 20.48Q26.98 20.93 27.83 20.93L27.83 20.93Q29.54 20.93 29.54 19.13L29.54 19.13L29.54 13.47L31.02 13.47L31.02 19.17Q31.02 20.53 30.15 21.32Q29.28 22.12 27.83 22.12L27.83 22.12Q26.36 22.12 25.50 21.33Q24.64 20.55 24.64 19.16ZM37.15 22L35.67 22L35.67 13.47L37.15 13.47L37.15 22ZM47.32 22L41.96 22L41.96 13.47L43.44 13.47L43.44 20.82L47.32 20.82L47.32 22ZM53.12 14.66L50.49 14.66L50.49 13.47L57.25 13.47L57.25 14.66L54.59 14.66L54.59 22L53.12 22L53.12 14.66ZM68.37 22L66.40 13.47L67.87 13.47L69.20 19.88L70.82 13.47L72.07 13.47L73.68 19.89L74.99 13.47L76.46 13.47L74.49 22L73.07 22L71.45 15.77L69.79 22L68.37 22ZM82.10 22L80.62 22L80.62 13.47L82.10 13.47L82.10 22ZM88.59 14.66L85.95 14.66L85.95 13.47L92.72 13.47L92.72 14.66L90.06 14.66L90.06 22L88.59 22L88.59 14.66ZM97.96 22L96.48 22L96.48 13.47L97.96 13.47L97.96 17.02L101.77 17.02L101.77 13.47L103.25 13.47L103.25 22L101.77 22L101.77 18.21L97.96 18.21L97.96 22Z" fill="#084061"/><path class="svg__text" d="M128.14 20.93L128.14 20.93L129.43 19.40Q130.10 20.27 130.88 20.27L130.88 20.27Q130.88 20.27 130.89 20.27L130.89 20.27Q131.40 20.27 131.67 19.96Q131.94 19.65 131.94 19.05L131.94 19.05L131.94 15.44L129.04 15.44L129.04 13.60L134.30 13.60L134.30 18.91Q134.30 20.54 133.47 21.36Q132.65 22.17 131.06 22.17L131.06 22.17Q130.13 22.17 129.38 21.85Q128.62 21.53 128.14 20.93ZM146.13 22L139.38 22L139.38 13.60L145.98 13.60L145.98 15.44L141.74 15.44L141.74 16.85L145.47 16.85L145.47 18.63L141.74 18.63L141.74 20.17L146.13 20.17L146.13 22ZM152.73 15.48L150.14 15.48L150.14 13.60L157.67 13.60L157.67 15.48L155.10 15.48L155.10 22L152.73 22L152.73 15.48ZM164.42 22L162.04 22L162.04 13.60L165.88 13.60Q167.02 13.60 167.86 13.98Q168.70 14.35 169.16 15.06Q169.61 15.76 169.61 16.71L169.61 16.71Q169.61 17.66 169.16 18.35Q168.70 19.05 167.86 19.42Q167.02 19.80 165.88 19.80L165.88 19.80L164.42 19.80L164.42 22ZM164.42 15.47L164.42 17.93L165.73 17.93Q166.47 17.93 166.84 17.61Q167.21 17.29 167.21 16.71L167.21 16.71Q167.21 16.12 166.84 15.80Q166.47 15.47 165.73 15.47L165.73 15.47L164.42 15.47ZM175.78 22L173.36 22L177.07 13.60L179.41 13.60L183.12 22L180.66 22L180.00 20.37L176.44 20.37L175.78 22ZM178.22 15.93L177.14 18.61L179.30 18.61L178.22 15.93ZM186.85 17.80L186.85 17.80Q186.85 16.54 187.45 15.54Q188.05 14.55 189.10 13.99Q190.15 13.43 191.47 13.43L191.47 13.43Q192.62 13.43 193.55 13.84Q194.47 14.25 195.08 15.02L195.08 15.02L193.57 16.39Q192.76 15.40 191.59 15.40L191.59 15.40Q190.91 15.40 190.37 15.70Q189.84 16 189.54 16.54Q189.25 17.09 189.25 17.80L189.25 17.80Q189.25 18.51 189.54 19.05Q189.84 19.60 190.37 19.90Q190.91 20.20 191.59 20.20L191.59 20.20Q192.76 20.20 193.57 19.22L193.57 19.22L195.08 20.58Q194.47 21.35 193.55 21.76Q192.62 22.17 191.47 22.17L191.47 22.17Q190.15 22.17 189.10 21.61Q188.05 21.05 187.45 20.05Q186.85 19.06 186.85 17.80ZM201.97 22L199.62 22L199.62 13.60L201.97 13.60L201.97 17.09L205.23 13.60L207.84 13.60L204.41 17.32L208.02 22L205.26 22L202.86 18.95L201.97 19.90L201.97 22ZM218.67 17.80L218.67 17.80Q218.67 16.54 219.27 15.54Q219.87 14.55 220.92 13.99Q221.97 13.43 223.29 13.43L223.29 13.43Q224.44 13.43 225.37 13.84Q226.29 14.25 226.91 15.02L226.91 15.02L225.39 16.39Q224.58 15.40 223.41 15.40L223.41 15.40Q222.73 15.40 222.19 15.70Q221.66 16 221.37 16.54Q221.07 17.09 221.07 17.80L221.07 17.80Q221.07 18.51 221.37 19.05Q221.66 19.60 222.19 19.90Q222.73 20.20 223.41 20.20L223.41 20.20Q224.58 20.20 225.39 19.22L225.39 19.22L226.91 20.58Q226.30 21.35 225.37 21.76Q224.44 22.17 223.29 22.17L223.29 22.17Q221.97 22.17 220.92 21.61Q219.87 21.05 219.27 20.05Q218.67 19.06 218.67 17.80ZM231.01 17.80L231.01 17.80Q231.01 16.55 231.62 15.55Q232.22 14.56 233.28 14.00Q234.35 13.43 235.68 13.43L235.68 13.43Q237.01 13.43 238.07 14.00Q239.13 14.56 239.74 15.55Q240.35 16.55 240.35 17.80L240.35 17.80Q240.35 19.05 239.74 20.04Q239.13 21.04 238.07 21.60Q237.01 22.17 235.68 22.17L235.68 22.17Q234.35 22.17 233.28 21.60Q232.22 21.04 231.62 20.04Q231.01 19.05 231.01 17.80ZM233.41 17.80L233.41 17.80Q233.41 18.51 233.71 19.05Q234.01 19.60 234.53 19.90Q235.04 20.20 235.68 20.20L235.68 20.20Q236.32 20.20 236.83 19.90Q237.35 19.60 237.65 19.05Q237.94 18.51 237.94 17.80L237.94 17.80Q237.94 17.09 237.65 16.54Q237.35 16 236.83 15.70Q236.32 15.40 235.68 15.40L235.68 15.40Q235.04 15.40 234.53 15.70Q234.01 16 233.71 16.54Q233.41 17.09 233.41 17.80ZM247.27 22L245.08 22L245.08 13.60L247.03 13.60L249.99 18.45L252.87 13.60L254.82 13.60L254.84 22L252.66 22L252.64 17.55L250.48 21.17L249.42 21.17L247.27 17.67L247.27 22ZM262.38 22L260.00 22L260.00 13.60L263.85 13.60Q264.99 13.60 265.83 13.98Q266.67 14.35 267.12 15.06Q267.58 15.76 267.58 16.71L267.58 16.71Q267.58 17.66 267.12 18.35Q266.67 19.05 265.83 19.42Q264.99 19.80 263.85 19.80L263.85 19.80L262.38 19.80L262.38 22ZM262.38 15.47L262.38 17.93L263.70 17.93Q264.43 17.93 264.81 17.61Q265.18 17.29 265.18 16.71L265.18 16.71Q265.18 16.12 264.81 15.80Q264.43 15.47 263.70 15.47L263.70 15.47L262.38 15.47ZM271.91 17.80L271.91 17.80Q271.91 16.55 272.51 15.55Q273.11 14.56 274.18 14.00Q275.24 13.43 276.57 13.43L276.57 13.43Q277.90 13.43 278.96 14.00Q280.03 14.56 280.63 15.55Q281.24 16.55 281.24 17.80L281.24 17.80Q281.24 19.05 280.63 20.04Q280.03 21.04 278.97 21.60Q277.91 22.17 276.57 22.17L276.57 22.17Q275.24 22.17 274.18 21.60Q273.11 21.04 272.51 20.04Q271.91 19.05 271.91 17.80ZM274.30 17.80L274.30 17.80Q274.30 18.51 274.60 19.05Q274.91 19.60 275.42 19.90Q275.94 20.20 276.57 20.20L276.57 20.20Q277.21 20.20 277.72 19.90Q278.24 19.60 278.54 19.05Q278.84 18.51 278.84 17.80L278.84 17.80Q278.84 17.09 278.54 16.54Q278.24 16 277.72 15.70Q277.21 15.40 276.57 15.40L276.57 15.40Q275.93 15.40 275.42 15.70Q274.91 16 274.60 16.54Q274.30 17.09 274.30 17.80ZM285.38 21.24L285.38 21.24L286.16 19.49Q286.72 19.86 287.47 20.09Q288.21 20.32 288.93 20.32L288.93 20.32Q290.30 20.32 290.30 19.64L290.30 19.64Q290.30 19.28 289.91 19.11Q289.52 18.93 288.66 18.74L288.66 18.74Q287.71 18.53 287.07 18.30Q286.44 18.06 285.98 17.55Q285.53 17.03 285.53 16.16L285.53 16.16Q285.53 15.39 285.95 14.77Q286.37 14.15 287.20 13.79Q288.04 13.43 289.24 13.43L289.24 13.43Q290.07 13.43 290.88 13.62Q291.68 13.80 292.30 14.17L292.30 14.17L291.56 15.93Q290.36 15.28 289.23 15.28L289.23 15.28Q288.52 15.28 288.20 15.49Q287.88 15.70 287.88 16.04L287.88 16.04Q287.88 16.37 288.26 16.54Q288.65 16.71 289.50 16.89L289.50 16.89Q290.46 17.10 291.09 17.33Q291.72 17.56 292.18 18.07Q292.64 18.58 292.64 19.46L292.64 19.46Q292.64 20.21 292.22 20.83Q291.80 21.44 290.96 21.80Q290.12 22.17 288.92 22.17L288.92 22.17Q287.90 22.17 286.94 21.92Q285.98 21.67 285.38 21.24ZM303.96 22L297.22 22L297.22 13.60L303.81 13.60L303.81 15.44L299.57 15.44L299.57 16.85L303.31 16.85L303.31 18.63L299.57 18.63L299.57 20.17L303.96 20.17L303.96 22Z" fill="#FFFFFF" x="128.03"/></svg>